<svg id="Layer_1" data-name="Layer 1" xmlns="http://www.w3.org/2000/svg" viewBox="0 0 283.46449 59.3442"><path d="M29.6717,18.9948a14.8361,14.8361,0,1,0,14.836,14.836,14.83606,14.83606,0,0,0-14.836-14.836m0,23.1441a8.30815,8.30815,0,1,1,8.3084-8.3081,8.30813,8.30813,0,0,1-8.3084,8.3081" transform="translate(0 -0.0047)"/><path d="M29.6717,52.2275a22.55085,22.55085,0,0,1,0-45.1017V.0047a29.6721,29.6721,0,0,0,0,59.3442Z" transform="translate(0 -0.0047)"/><path d="M73.724,48.6668a14.4558,14.4558,0,0,1-14.999-14.836c0-8.437,6.2362-14.7953,15.1215-14.836,7.214-.0408,13.4502,4.7279,14.2244,12.1459H82.1202a7.92309,7.92309,0,0,0-8.2332-6.6436,8.92467,8.92467,0,0,0-9.2519,9.3337c0,5.5839,3.9128,9.3744,9.2519,9.3336a8.08036,8.08036,0,0,0,8.2741-6.5213h5.9098C87.1337,44.1426,81.3865,48.626,73.724,48.6668Z" transform="translate(0 -0.0047)"/><path d="M97.1598,48.0962H91.4947V19.1578h5.6651Z" transform="translate(0 -0.0047)"/><path d="M100.5427,42.7161c0-10.4749,14.6728-4.4834,14.6728-8.4777,0-2.2825-2.0788-2.8124-3.9537-2.8124-2.2009,0-3.9128,1.3043-4.0758,3.0977h-5.7468c.4891-5.0541,4.6055-7.2958,10.1081-7.2958,5.8282,0,9.3335,1.9157,9.3335,7.2142V48.0962h-5.6653V44.4687a8.1658,8.1658,0,0,1-7.2958,4.1573C103.0697,48.626,100.5427,45.8952,100.5427,42.7161Zm14.6728-3.4645v-.8559c-3.7091,2.2009-8.9262-.4076-8.9262,3.9943,0,1.6303,1.3858,2.2009,3.0161,2.2009C111.4248,44.5909,115.2155,42.7161,115.2155,39.2516Z" transform="translate(0 -0.0047)"/><path d="M129.7661,41.1265c.4486,2.364,2.3234,3.1384,4.5649,3.1384,1.7933,0,3.6682-.4484,3.6682-1.9564,0-.8152-.6521-1.2635-1.4673-1.4673l-6.1952-1.6711c-4.0349-1.1005-5.5837-2.8531-5.5837-5.5431,0-3.9536,3.9128-6.3583,8.9668-6.3583,5.2986,0,8.80381,2.9753,8.96681,7.0104H137.2657c-.1222-1.8749-1.671-2.69-3.7905-2.69-1.7118,0-3.1791.6113-3.1791,1.8748,0,.8152.4891,1.3451,1.5894,1.6304l5.421,1.4265c3.5458.9375,6.2768,2.3232,6.2768,5.7877,0,3.8313-3.7906,6.2768-9.4969,6.2768-5.217,0-9.2519-2.5271-9.741-7.4588Z" transform="translate(0 -0.0047)"/><path d="M152.2639,33.8308a14.7142,14.7142,0,1,1,29.4274,0,14.7142,14.7142,0,1,1-29.4274,0Zm23.5173,0c0-5.3801-3.6273-9.2522-8.8038-9.2522-5.1761,0-8.8037,3.8721-8.8037,9.2522s3.6276,9.2521,8.8037,9.2521C172.1539,43.0829,175.7812,39.2109,175.7812,33.8308Z" transform="translate(0 -0.0047)"/><path d="M204.88261,35.8279V48.0962h-5.66522V36.8469c0-3.5867-1.38578-4.7687-3.58669-4.7687-2.7716,0-4.932,2.8938-4.932,6.7251v9.2929h-5.6652V19.1578h5.6652V31.7521a7.46657,7.46657,0,0,1,6.7253-4.5242C201.62189,27.2279,204.88261,29.7549,204.88261,35.8279Z" transform="translate(0 -0.0047)"/><path d="M214.42,48.0962h-5.6652V19.1578H214.42Z" transform="translate(0 -0.0047)"/><path d="M222.73469,41.1265c.4482,2.364,2.3231,3.1384,4.56492,3.1384,1.79338,0,3.66828-.4484,3.66828-1.9564,0-.8152-.6521-1.2635-1.46728-1.4673l-6.19532-1.6711c-4.0352-1.1005-5.584-2.8531-5.584-5.5431,0-3.9536,3.9128-6.3583,8.9668-6.3583,5.2986,0,8.8038,2.9753,8.9668,7.0104h-5.4207c-.1224-1.8749-1.6712-2.69-3.7907-2.69-1.7118,0-3.1791.6113-3.1791,1.8748,0,.8152.4891,1.3451,1.5898,1.6304l5.4206,1.4265c3.5462.9375,6.27682,2.3232,6.27682,5.7877,0,3.8313-3.79032,6.2768-9.49652,6.2768-5.2171,0-9.2523-2.5271-9.7414-7.4588Z" transform="translate(0 -0.0047)"/><path d="M238.671,37.8658c0-6.1952,4.728-10.6379,10.9232-10.6379,6.1953,0,10.9638,4.4427,10.9638,10.6379a10.94584,10.94584,0,0,1-21.887,0Zm16.2624.0408c0-3.3422-2.16-5.6654-5.3392-5.6654-3.1791,0-5.2985,2.3232-5.2985,5.6654s2.1194,5.6654,5.2985,5.6654C252.77339,43.572,254.93339,41.2488,254.93339,37.9066Z" transform="translate(0 -0.0047)"/><path d="M283.46449,35.8279V48.0962h-5.6656V36.8469c0-3.5867-1.3857-4.7687-3.5867-4.7687-2.7715,0-4.93158,2.8938-4.93158,6.7251v9.2929h-5.66552V27.717h5.66552v4.0351a7.46643,7.46643,0,0,1,6.725-4.5242C280.20389,27.2279,283.46449,29.7549,283.46449,35.8279Z" transform="translate(0 -0.0047)"/></svg>